<?xml version="1.0" encoding="utf-8"?>
<svg width="45.37056mm" height="45.685844mm" viewBox="0 0 160.76183 161.87898" id="svg3406" version="1.1" xmlns="http://www.w3.org/2000/svg">
  <g id="g-1" transform="matrix(1.201519, 1.044464, -1.044464, 1.201519, 414.859528, -709.973206)" style="">
    <title>CocoaColor</title>
    <path style="fill-opacity: 1; paint-order: fill; fill: rgb(255, 87, 34);" d="M 160.353 485.647 C 184.051 485.785 204.108 496.267 213.791 513.572 C 216.271 518.004 216.782 520.921 215.797 525.029 C 214.294 531.295 207.818 535.814 196.83 538.263 C 190.101 539.763 178.559 540.35 172.146 539.518 C 159.869 537.926 150.103 534.138 140.093 527.083 C 130.661 520.436 127.516 513.432 130.083 504.788 C 130.621 502.977 130.902 501.235 130.706 500.918 C 130.51 500.601 128.716 500.022 126.721 499.631 C 118.347 497.989 116.315 495.475 120.75 492.242 C 124.099 489.8 124.545 489.883 128.128 493.612 C 129.968 495.527 131.932 497.092 132.492 497.092 C 133.052 497.092 134.654 495.851 136.053 494.333 C 141.29 488.651 149.866 485.585 160.353 485.647 Z" id="path-1">
      <title>Background</title>
    </path>
    <g>
      <title>Strokes</title>
      <path style="fill: rgb(255, 255, 255); paint-order: fill;" d="M 197.476 537.653 C 200.429 536.752 198.643 536.414 190.512 536.337 C 170.425 536.145 151.634 529.924 139.088 519.313 C 134.086 515.083 133.708 514.874 133.708 516.343 C 133.708 517.006 135.221 519.111 137.071 521.021 C 146.02 530.26 156.529 535.309 172.95 538.258 C 175.253 538.672 195.799 538.165 197.476 537.653 Z" id="path-2"/>
      <path style="fill: rgb(255, 255, 255); paint-order: fill;" d="M 206.631 532.983 C 208.914 532.277 210.116 531.282 209.47 530.635 C 209.295 530.461 206.205 530.053 202.602 529.729 C 176.373 527.371 153.392 520.394 138.078 510.14 C 135.5 508.414 133.178 506.998 132.916 506.993 C 132.655 506.989 132.442 507.659 132.442 508.483 C 132.442 509.532 133.968 511.44 137.525 514.838 C 147.764 524.621 159.324 530.359 174.532 533.21 C 180.505 534.33 202.79 534.172 206.631 532.983 Z" id="path-3"/>
      <path style="fill: rgb(255, 255, 255); paint-order: fill;" d="M 210.677 527.213 C 214.988 525.574 210.602 521.661 196.685 514.728 C 176.606 504.726 156.491 498.461 141.936 497.676 C 136.439 497.38 135.774 497.471 134.182 498.733 C 130.974 501.279 132.317 504.074 138.717 508.173 C 154.775 518.455 178.013 526.02 199.217 527.866 C 205.096 528.377 208.059 528.209 210.677 527.213 Z" id="path-4"/>
      <path style="fill: rgb(255, 255, 255); paint-order: fill;" d="M 214.091 521.415 C 214.091 520.158 207.07 513.728 199.814 508.341 C 191.161 501.916 180.907 496.692 172.633 494.494 C 166.909 492.974 165.214 492.812 154.911 492.803 C 146.475 492.796 142.863 493.034 140.995 493.718 C 139.607 494.227 138.533 494.928 138.608 495.276 C 138.684 495.624 141.528 496.111 144.929 496.358 C 164.127 497.754 187.793 506.203 205.862 518.111 C 211.757 521.995 214.091 522.933 214.091 521.415 Z" id="path-5"/>
      <path style="fill: rgb(255, 255, 255); paint-order: fill;" d="M 210.926 513.241 C 210.926 512.021 206.594 506.569 203.052 503.332 C 196.128 497.004 187.731 492.42 179.012 490.209 C 171.47 488.296 161.799 487.174 157.272 487.686 C 149.977 488.512 146.64 490.609 153.531 490.037 C 160.274 489.478 172.589 491.842 181.291 495.366 C 189.096 498.526 200.868 505.773 206.812 511.075 C 210.094 514.003 210.926 514.441 210.926 513.241 Z" id="path-6"/>
    </g>
  </g>
  <g id="layer1" transform="matrix(1.201519, 1.044464, -1.044464, 1.201519, 414.859528, -709.973206)" style="visibility: hidden;">
    <title>CocoaInverse</title>
    <rect x="-0.254" y="-0.166" width="101.275" height="101.828" style="fill: rgb(255, 87, 34);" transform="matrix(0.75471, -0.656059, 0.656059, 0.75471, 95.906395, 507.526245)">
      <title>Background</title>
    </rect>
    <path style="fill-opacity: 1; paint-order: fill; fill: rgb(255, 255, 255);" d="M 160.353 485.647 C 184.051 485.785 204.108 496.267 213.791 513.572 C 216.271 518.004 216.782 520.921 215.797 525.029 C 214.294 531.295 207.818 535.814 196.83 538.263 C 190.101 539.763 178.559 540.35 172.146 539.518 C 159.869 537.926 150.103 534.138 140.093 527.083 C 130.661 520.436 127.516 513.432 130.083 504.788 C 130.621 502.977 130.902 501.235 130.706 500.918 C 130.51 500.601 128.716 500.022 126.721 499.631 C 118.347 497.989 116.315 495.475 120.75 492.242 C 124.099 489.8 124.545 489.883 128.128 493.612 C 129.968 495.527 131.932 497.092 132.492 497.092 C 133.052 497.092 134.654 495.851 136.053 494.333 C 141.29 488.651 149.866 485.585 160.353 485.647 Z" id="path4422">
      <title>Background</title>
    </path>
    <g>
      <title>Strokers</title>
      <path style="paint-order: fill; fill: rgb(255, 87, 34);" d="M 197.476 537.653 C 200.429 536.752 198.643 536.414 190.512 536.337 C 170.425 536.145 151.634 529.924 139.088 519.313 C 134.086 515.083 133.708 514.874 133.708 516.343 C 133.708 517.006 135.221 519.111 137.071 521.021 C 146.02 530.26 156.529 535.309 172.95 538.258 C 175.253 538.672 195.799 538.165 197.476 537.653 Z" id="path4627"/>
      <path style="paint-order: fill; fill: rgb(255, 87, 34);" d="M 206.631 532.983 C 208.914 532.277 210.116 531.282 209.47 530.635 C 209.295 530.461 206.205 530.053 202.602 529.729 C 176.373 527.371 153.392 520.394 138.078 510.14 C 135.5 508.414 133.178 506.998 132.916 506.993 C 132.655 506.989 132.442 507.659 132.442 508.483 C 132.442 509.532 133.968 511.44 137.525 514.838 C 147.764 524.621 159.324 530.359 174.532 533.21 C 180.505 534.33 202.79 534.172 206.631 532.983 Z" id="path4625"/>
      <path style="paint-order: fill; fill: rgb(255, 87, 34);" d="M 210.677 527.213 C 214.988 525.574 210.602 521.661 196.685 514.728 C 176.606 504.726 156.491 498.461 141.936 497.676 C 136.439 497.38 135.774 497.471 134.182 498.733 C 130.974 501.279 132.317 504.074 138.717 508.173 C 154.775 518.455 178.013 526.02 199.217 527.866 C 205.096 528.377 208.059 528.209 210.677 527.213 Z" id="path4623"/>
      <path style="paint-order: fill; fill: rgb(255, 87, 34);" d="M 214.091 521.415 C 214.091 520.158 207.07 513.728 199.814 508.341 C 191.161 501.916 180.907 496.692 172.633 494.494 C 166.909 492.974 165.214 492.812 154.911 492.803 C 146.475 492.796 142.863 493.034 140.995 493.718 C 139.607 494.227 138.533 494.928 138.608 495.276 C 138.684 495.624 141.528 496.111 144.929 496.358 C 164.127 497.754 187.793 506.203 205.862 518.111 C 211.757 521.995 214.091 522.933 214.091 521.415 Z" id="path4621"/>
      <path style="paint-order: fill; fill: rgb(255, 87, 34);" d="M 210.926 513.241 C 210.926 512.021 206.594 506.569 203.052 503.332 C 196.128 497.004 187.731 492.42 179.012 490.209 C 171.47 488.296 161.799 487.174 157.272 487.686 C 149.977 488.512 146.64 490.609 153.531 490.037 C 160.274 489.478 172.589 491.842 181.291 495.366 C 189.096 498.526 200.868 505.773 206.812 511.075 C 210.094 514.003 210.926 514.441 210.926 513.241 Z" id="path4619"/>
    </g>
  </g>
</svg>